<svg width="144" height="54" viewBox="0 0 144 54" fill="none" xmlns="http://www.w3.org/2000/svg">
<g clip-path="url(#clip0_5_1111)">
<path fill-rule="evenodd" clip-rule="evenodd" d="M37.6225 26.3C39.2128 24.8723 40.2587 22.9905 40.2587 20.7867C40.2587 15.7273 36.4119 12.3593 29.8143 12.3593H13.7395C12.8298 12.3593 12.0919 13.1134 12.0919 14.0433V39.882C12.0919 40.8119 12.8298 41.566 13.7395 41.566H30.9103C36.3761 41.566 41.3547 38.7544 41.3547 33.1386C41.3547 29.9536 39.9435 27.6765 37.6153 26.2927L37.6225 26.3ZM19.7855 18.2606C19.7855 18.1069 19.9073 17.9824 20.0577 17.9824H29.9504C31.727 17.9824 32.9734 19.1027 32.9734 20.794C32.9734 22.4853 31.8702 23.6056 29.9504 23.6056H20.0577C19.9073 23.6056 19.7855 23.4811 19.7855 23.3274V18.268V18.2606ZM29.6782 35.9502H20.0577C19.9073 35.9502 19.7855 35.8257 19.7855 35.672V29.4923C19.7855 29.3386 19.9073 29.2141 20.0577 29.2141H29.6782C32.2642 29.2141 34.0766 30.3417 34.0766 32.5821C34.0766 34.8226 32.4791 35.9502 29.6782 35.9502Z" fill="#FFFFFF"></path>
<path fill-rule="evenodd" clip-rule="evenodd" d="M70.3524 12.3593H56.4481C51.9638 12.3593 48.0453 15.4417 46.892 19.8641L41.7845 39.45C41.5051 40.519 42.2931 41.5734 43.3819 41.5734H47.9307C48.6757 41.5734 49.3348 41.0608 49.521 40.3213L50.8964 35.0423C50.9251 34.9178 51.0397 34.8373 51.1615 34.8373H64.0414C64.1918 34.8373 64.3136 34.9617 64.3136 35.1155V39.8893C64.3136 40.8192 65.0514 41.5734 65.9612 41.5734H70.3595C71.2693 41.5734 72.0071 40.8192 72.0071 39.8893V14.0433C72.0071 13.1134 71.2693 12.3593 70.3595 12.3593H70.3524ZM64.3064 28.9286C64.3064 29.0823 64.1846 29.2068 64.0342 29.2068H52.7661C52.587 29.2068 52.4509 29.0311 52.501 28.8553L54.471 21.3065C54.9867 19.337 56.7275 17.9678 58.7189 17.9678H64.0342C64.1846 17.9678 64.3064 18.0922 64.3064 18.246V28.9212V28.9286Z" fill="#FFFFFF"></path>
<path fill-rule="evenodd" clip-rule="evenodd" d="M74.6433 34.1197C74.6433 36.0966 75.7895 38.2419 77.9743 39.677C80.1592 41.0974 82.2939 41.566 85.0088 41.566H91.7568C96.3629 41.566 98.9418 40.9949 100.84 39.5379C102.746 38.0662 103.698 35.877 103.698 33.1606C103.698 28.0206 99.5077 25.7069 90.2095 23.9058C85.8756 23.0711 81.8354 22.683 81.7137 20.3767C81.642 19.066 82.5088 17.9605 85.102 17.9605H92.8887C94.2282 17.9605 95.1738 18.2899 95.9403 19.4102C96.1838 19.7763 96.2913 20.384 96.3343 20.9331C96.3844 21.6214 96.9432 22.1559 97.6165 22.1559H101.657C102.473 22.1559 103.132 21.4823 103.14 20.6476C103.14 20.4279 103.14 20.179 103.14 19.9081C103.14 17.7701 101.907 15.6028 99.7226 14.1824C97.5521 12.7473 94.2282 12.3593 91.5133 12.3593H86.6063C81.9859 12.3593 79.3712 13.0402 77.48 14.5119C75.5889 15.9762 74.6433 18.063 74.6433 20.7867C74.6433 31.0812 96.3271 28.1378 96.3271 33.6731C96.3271 35.3132 94.6007 35.9502 92.6451 35.9502H84.8298C82.8526 35.9502 81.7495 35.013 81.7495 33.5999C81.7495 33.5999 81.8713 31.8866 80.0875 31.8866H76.1261C75.3095 31.8866 74.6433 32.5675 74.6433 33.4022C74.6433 33.6145 74.6433 33.8561 74.6433 34.1197Z" fill="#FFFFFF"></path>
<path fill-rule="evenodd" clip-rule="evenodd" d="M131.908 14.0433V16.2911C131.908 17.2209 131.17 17.9751 130.26 17.9751H114.594C114.444 17.9751 114.322 18.0996 114.322 18.2533V23.3127C114.322 23.4665 114.444 23.5909 114.594 23.5909H128.061C128.971 23.5909 129.709 24.3451 129.709 25.275V27.5228C129.709 28.4526 128.971 29.2068 128.061 29.2068H114.594C114.444 29.2068 114.322 29.3313 114.322 29.485V35.6646C114.322 35.8184 114.444 35.9429 114.594 35.9429H130.26C131.17 35.9429 131.908 36.697 131.908 37.6269V39.8747C131.908 40.8046 131.17 41.5587 130.26 41.5587H108.276C107.366 41.5587 106.628 40.8046 106.628 39.8747V14.0433C106.628 13.1134 107.366 12.3593 108.276 12.3593H130.26C131.17 12.3593 131.908 13.1134 131.908 14.0433Z" fill="#FFFFFF"></path>
<path d="M130.26 0H13.7395C6.15342 0 0 6.28945 0 14.0433V39.8893C0 47.6431 6.15342 53.9326 13.7395 53.9326H130.26C137.847 53.9326 144 47.6431 144 39.8893V14.0433C144 6.28945 137.847 0 130.26 0ZM138.506 39.8893C138.506 44.5387 134.809 48.3167 130.26 48.3167H13.7395C9.18356 48.3167 5.49438 44.546 5.49438 39.8893V14.0433C5.49438 9.38658 9.18356 5.61584 13.7395 5.61584H130.26C134.809 5.61584 138.506 9.39391 138.506 14.0433V39.882V39.8893Z" fill="#FFFFFF" fill-opacity="0.4"></path>
</g>
<defs>
<clipPath id="clip0_5_1111">
<rect width="144" height="53.9326" fill="white"></rect>
</clipPath>
</defs>
</svg>